# xmcd
#
# Track frame offsets: 
#        150
#        18155
#        38812
#        57020
#        73300
#        90770
#        108265
#        123965
#        142152
#        163537
#        179212
#        196602
#        214387
#        235237
#        253607
#        271410
#        290502
#        308947
#
# Disc length: 4357 seconds
#
# Revision: 0
# Processed by: cddbd v1.5.2PL0 Copyright (c) Steve Scherf et al.
# Submitted via: ExactAudioCopy v1.0b3
#
DISCID=06110312
DTITLE=The Pointer Sisters - The Best Of The Pointer Sisters
DYEAR=1989
DGENRE=Soul
TTITLE0=Jump (For My Love)
TTITLE1=Someday We'll Be Together
TTITLE2=Automatic
TTITLE3=He's So Shy
TTITLE4=Should I Do It?
TTITLE5=Slow Hand
TTITLE6=Heart To Heart
TTITLE7=Telegraph Your Love
TTITLE8=Anita Pointer - Overnight Success
TTITLE9=Fire
TTITLE10=I'm So Excited
TTITLE11=Goldmine
TTITLE12=Back In My Arms
TTITLE13=I Need You
TTITLE14=Neutron Dance
TTITLE15=Dare Me
TTITLE16=See How The Love Goes
TTITLE17=June Pointer - I'm Ready For Love
EXTD=
EXTT0=
EXTT1=
EXTT2=
EXTT3=
EXTT4=
EXTT5=
EXTT6=
EXTT7=
EXTT8=
EXTT9=
EXTT10=
EXTT11=
EXTT12=
EXTT13=
EXTT14=
EXTT15=
EXTT16=
EXTT17=
PLAYORDER=
